<?xml version="1.0"?>
<svg xmlns="http://www.w3.org/2000/svg" id="constelation" enable-background="new 0 0 300 300" height="512px" viewBox="0 0 300 300" width="512px" class=""><g><path d="m54.386 51.193c.781.781 1.805 1.172 2.828 1.172s2.047-.391 2.828-1.172l4.258-4.259 4.258 4.259c.781.781 1.805 1.172 2.828 1.172s2.047-.391 2.828-1.172c1.562-1.562 1.562-4.094 0-5.656l-4.259-4.26 4.259-4.26c1.562-1.562 1.562-4.094 0-5.656s-4.094-1.562-5.656 0l-4.258 4.259-4.258-4.259c-1.562-1.562-4.094-1.562-5.656 0s-1.562 4.094 0 5.656l4.259 4.26-4.259 4.26c-1.563 1.563-1.563 4.094 0 5.656z" data-original="#000000" class="active-path" data-old_color="#000000" fill="#FFFFFF"/><path d="m247.386 148.365c1.023 0 2.047-.391 2.828-1.172 1.562-1.562 1.562-4.094 0-5.656l-4.259-4.26 4.259-4.26c1.562-1.562 1.562-4.094 0-5.656s-4.094-1.562-5.656 0l-4.258 4.259-4.258-4.259c-1.562-1.562-4.094-1.562-5.656 0s-1.562 4.094 0 5.656l4.259 4.26-4.259 4.26c-1.562 1.562-1.562 4.094 0 5.656.781.781 1.805 1.172 2.828 1.172s2.047-.391 2.828-1.172l4.258-4.259 4.258 4.259c.781.782 1.804 1.172 2.828 1.172z" data-original="#000000" class="active-path" data-old_color="#000000" fill="#FFFFFF"/><path d="m266.214 231.361c-1.562-1.562-4.094-1.562-5.656 0l-4.258 4.259-4.258-4.259c-1.562-1.562-4.094-1.562-5.656 0s-1.562 4.094 0 5.656l4.259 4.26-4.259 4.26c-1.562 1.562-1.562 4.094 0 5.656.781.781 1.805 1.172 2.828 1.172s2.047-.391 2.828-1.172l4.258-4.259 4.258 4.259c.781.781 1.805 1.172 2.828 1.172s2.047-.391 2.828-1.172c1.562-1.562 1.562-4.094 0-5.656l-4.259-4.26 4.259-4.26c1.562-1.562 1.562-4.093 0-5.656z" data-original="#000000" class="active-path" data-old_color="#000000" fill="#FFFFFF"/><circle cx="48.3" cy="103.256" r="4" data-original="#000000" class="active-path" data-old_color="#000000" fill="#FFFFFF"/><circle cx="128.3" cy="87.256" r="4" data-original="#000000" class="active-path" data-old_color="#000000" fill="#FFFFFF"/><circle cx="204.3" cy="191.256" r="4" data-original="#000000" class="active-path" data-old_color="#000000" fill="#FFFFFF"/><circle cx="164.3" cy="251.256" r="4" data-original="#000000" class="active-path" data-old_color="#000000" fill="#FFFFFF"/><circle cx="32.3" cy="247.256" r="4" data-original="#000000" class="active-path" data-old_color="#000000" fill="#FFFFFF"/><path d="m82.386 147.193c.781.781 1.805 1.172 2.828 1.172s2.047-.391 2.828-1.172l4.258-4.259 4.258 4.259c.781.781 1.805 1.172 2.828 1.172s2.047-.391 2.828-1.172c1.562-1.562 1.562-4.094 0-5.656l-4.259-4.26 4.259-4.26c1.562-1.562 1.562-4.094 0-5.656s-4.094-1.562-5.656 0l-4.258 4.259-4.258-4.259c-1.562-1.562-4.094-1.562-5.656 0s-1.562 4.094 0 5.656l4.259 4.26-4.259 4.26c-1.563 1.563-1.563 4.094 0 5.656z" data-original="#000000" class="active-path" data-old_color="#000000" fill="#FFFFFF"/><circle cx="204.3" cy="47.256" r="4" data-original="#000000" class="active-path" data-old_color="#000000" fill="#FFFFFF"/><path d="m272.3 68.346-3.484-6.395 3.285-6.492c.902-1.789.719-3.895-.484-5.496-1.199-1.598-3.184-2.34-5.133-1.996l-7.156 1.34-5.172-5.141c-1.418-1.406-3.473-1.863-5.371-1.227-1.891.652-3.223 2.289-3.477 4.266l-.938 7.219-6.477 3.324c-1.781.914-2.867 2.723-2.836 4.723.026 1.684.867 3.171 2.198 4.123l-40.844 17.017c-.175-.58-.415-1.143-.794-1.648-1.199-1.598-3.18-2.348-5.133-1.996l-7.156 1.34-5.172-5.141c-1.422-1.406-3.477-1.863-5.371-1.227-1.891.652-3.223 2.289-3.477 4.266l-.938 7.219-6.477 3.324c-1.781.914-2.867 2.723-2.836 4.723.031 2.004 1.172 3.781 2.98 4.637l6.578 3.121 1.156 7.184c.099.622.335 1.183.629 1.71l-7.55 37.736-.696-.692c-1.422-1.406-3.477-1.867-5.371-1.227-1.891.652-3.223 2.289-3.477 4.266l-.938 7.219-.54.277-87.791 4.88.062-.122c.902-1.789.719-3.895-.484-5.496-1.199-1.598-3.18-2.34-5.133-1.996l-7.156 1.34-5.172-5.141c-1.422-1.402-3.473-1.867-5.371-1.227-1.891.652-3.223 2.289-3.477 4.266l-.938 7.219-6.477 3.324c-1.781.914-2.867 2.723-2.836 4.723.031 2.004 1.172 3.781 2.98 4.637l6.578 3.121 1.156 7.184c.316 1.98 1.703 3.574 3.621 4.164.512.156 1.031.234 1.547.234 1.414 0 2.777-.574 3.777-1.641l2.029-2.146 27.102 58.72-1.955 1.003c-1.781.914-2.867 2.723-2.836 4.723.031 2.004 1.172 3.781 2.98 4.637l6.578 3.121 1.156 7.184c.316 1.98 1.703 3.574 3.621 4.164.512.156 1.031.234 1.547.234 1.414 0 2.777-.574 3.777-1.641l5-5.289 7.195 1.121c1.988.312 3.922-.52 5.074-2.156s1.27-3.746.312-5.5l-3.484-6.395 1.667-3.293c.118-.054.242-.082.357-.148l59.477-34.695c1.23-.719 1.984-2.035 1.984-3.457v-29.386l6.613 1.031c1.988.312 3.926-.52 5.074-2.156 1.152-1.637 1.27-3.746.312-5.5l-3.484-6.395 3.285-6.492c.902-1.789.719-3.895-.484-5.496-1.199-1.598-3.188-2.348-5.133-1.996l-4.255.797 8.061-40.292c.134-.117.305-.17.428-.302l5-5.289 7.195 1.121c1.98.316 3.922-.52 5.074-2.156s1.27-3.746.312-5.5l-3.484-6.395.114-.225 51.983-21.658.86 5.344c.316 1.98 1.703 3.574 3.621 4.164.512.156 1.031.234 1.547.234 1.414 0 2.777-.574 3.777-1.641l5-5.289 7.195 1.121c1.98.316 3.926-.52 5.074-2.156 1.16-1.637 1.277-3.746.32-5.5zm-227.523 110.234-.598-3.699c-.211-1.301-1.043-2.414-2.234-2.977l-3.391-1.609 3.336-1.711c1.172-.602 1.973-1.738 2.141-3.043l.484-3.723 2.66 2.645c.93.934 2.293 1.332 3.555 1.098l3.691-.691-1.695 3.348c-.594 1.172-.57 2.562.059 3.719l1.797 3.293-3.707-.578c-1.324-.211-2.621.246-3.523 1.207zm50.097 76.07c-1.324-.207-2.621.246-3.523 1.207l-2.574 2.723-.598-3.699c-.211-1.301-1.043-2.414-2.234-2.977l-3.391-1.609 3.336-1.711c1.172-.602 1.973-1.738 2.141-3.043l.484-3.723 2.66 2.645c.934.934 2.285 1.332 3.555 1.098l3.691-.691-1.695 3.348c-.594 1.172-.57 2.562.059 3.719l1.797 3.293zm12.003-17.428c-1.195-1.056-2.796-1.544-4.393-1.256l-7.156 1.34-5.172-5.141c-1.422-1.406-3.48-1.863-5.371-1.227-1.891.652-3.223 2.289-3.477 4.266l-.23 1.774-24.629-53.362 2.465.384c1.988.32 3.926-.52 5.074-2.156 1.152-1.637 1.27-3.746.313-5.5l-2.523-4.63 81.392-4.524c.263 1.696 1.285 3.167 2.869 3.916l6.578 3.121 1.156 7.184c.316 1.98 1.703 3.574 3.621 4.164.512.156 1.031.234 1.547.234.47 0 .912-.156 1.359-.28v20.53zm61.907-69.286 1.797 3.293-3.707-.578c-1.04-.159-2.051.094-2.877.667-1.51.119-2.794 1.029-3.367 2.357l-.451-2.793c-.211-1.301-1.043-2.414-2.234-2.977l-2.944-1.397c1.36-.122 2.458-.933 3.082-2.054 1.059-.625 1.79-1.686 1.948-2.912l.484-3.723 2.66 2.645c.934.934 2.289 1.332 3.555 1.098l3.691-.691-1.695 3.348c-.594 1.17-.571 2.56.058 3.717zm14.09-69.286c-1.328-.211-2.621.246-3.523 1.207l-2.574 2.723-.598-3.699c-.211-1.301-1.043-2.414-2.234-2.977l-3.391-1.609 3.336-1.711c1.172-.602 1.973-1.738 2.141-3.043l.484-3.723 2.66 2.645c.934.934 2.289 1.324 3.555 1.098l3.261-.611c-.311.567-.528 1.177-.539 1.832l-.727 1.435c-.594 1.172-.57 2.562.059 3.719l1.797 3.293zm76-32c-1.332-.211-2.621.246-3.523 1.207l-2.574 2.723-.598-3.699c-.211-1.301-1.043-2.414-2.234-2.977l-3.391-1.609 3.336-1.711c1.172-.602 1.973-1.738 2.141-3.043l.484-3.723 2.66 2.645c.934.934 2.285 1.328 3.555 1.098l3.691-.691-1.695 3.348c-.594 1.172-.57 2.562.059 3.719l1.797 3.293z" data-original="#000000" class="active-path" data-old_color="#000000" fill="#FFFFFF"/></g> </svg>
